<svg xmlns="http://www.w3.org/2000/svg" xmlns:xlink="http://www.w3.org/1999/xlink" width="200" zoomAndPan="magnify" viewBox="0 0 150 149.999998" height="200" preserveAspectRatio="xMidYMid meet" version="1.0"><defs><g/><clipPath id="b756b0074e"><path d="M 12.628906 4.46875 L 138.628906 4.46875 L 138.628906 130.46875 L 12.628906 130.46875 Z M 12.628906 4.46875 " clip-rule="nonzero"/></clipPath></defs><rect x="-15" width="180" fill="#ffffff" y="-15" height="179.999997" fill-opacity="1"/><rect x="-15" width="180" fill="#ffffff" y="-15" height="179.999997" fill-opacity="1"/><g clip-path="url(#b756b0074e)"><path fill="#000000" d="M 135.96875 88.730469 C 134.652344 88.730469 133.582031 87.65625 133.582031 86.335938 L 133.582031 12.882812 L 93.039062 53.527344 C 92.105469 54.464844 90.59375 54.464844 89.660156 53.527344 C 88.730469 52.59375 88.730469 51.078125 89.660156 50.140625 L 134.28125 5.410156 C 134.964844 4.726562 135.992188 4.519531 136.886719 4.890625 C 137.777344 5.261719 138.359375 6.132812 138.359375 7.101562 L 138.359375 86.335938 C 138.359375 87.65625 137.289062 88.730469 135.96875 88.730469 Z M 15.300781 130.46875 C 13.984375 130.46875 12.914062 129.398438 12.914062 128.074219 L 12.914062 44.59375 C 12.914062 43.625 13.496094 42.753906 14.386719 42.382812 C 15.28125 42.011719 16.308594 42.21875 16.992188 42.902344 L 58.625 84.640625 C 59.558594 85.578125 59.558594 87.09375 58.625 88.027344 C 57.691406 88.964844 56.179688 88.964844 55.246094 88.027344 L 17.691406 50.375 L 17.691406 128.074219 C 17.691406 129.398438 16.621094 130.46875 15.300781 130.46875 Z M 135.96875 130.46875 C 135.359375 130.46875 134.75 130.234375 134.28125 129.769531 L 13.613281 8.796875 C 12.679688 7.863281 12.679688 6.34375 13.613281 5.410156 C 14.546875 4.476562 16.058594 4.476562 16.992188 5.410156 L 137.660156 126.382812 C 138.59375 127.316406 138.59375 128.832031 137.660156 129.769531 C 137.191406 130.234375 136.582031 130.46875 135.96875 130.46875 " fill-opacity="1" fill-rule="nonzero"/></g><g fill="#000000" fill-opacity="1"><g transform="translate(11.757612, 142.794735)"><g><path d="M 6.96875 -2.140625 C 6.96875 -1.796875 6.890625 -1.476562 6.734375 -1.1875 C 6.585938 -0.894531 6.375 -0.640625 6.09375 -0.421875 C 5.8125 -0.210938 5.476562 -0.0507812 5.09375 0.0625 C 4.707031 0.175781 4.28125 0.234375 3.8125 0.234375 C 3.132812 0.234375 2.519531 0.117188 1.96875 -0.109375 C 1.425781 -0.347656 0.894531 -0.679688 0.375 -1.109375 L 1.21875 -2.0625 C 1.46875 -1.863281 1.707031 -1.6875 1.9375 -1.53125 C 2.164062 -1.382812 2.394531 -1.265625 2.625 -1.171875 C 2.851562 -1.078125 3.082031 -1.007812 3.3125 -0.96875 C 3.550781 -0.925781 3.804688 -0.90625 4.078125 -0.90625 C 4.597656 -0.90625 4.988281 -1.007812 5.25 -1.21875 C 5.507812 -1.4375 5.640625 -1.707031 5.640625 -2.03125 C 5.640625 -2.3125 5.515625 -2.53125 5.265625 -2.6875 C 5.023438 -2.851562 4.71875 -2.988281 4.34375 -3.09375 C 3.976562 -3.207031 3.578125 -3.3125 3.140625 -3.40625 C 2.710938 -3.507812 2.316406 -3.644531 1.953125 -3.8125 C 1.585938 -3.988281 1.28125 -4.210938 1.03125 -4.484375 C 0.789062 -4.765625 0.671875 -5.128906 0.671875 -5.578125 C 0.671875 -5.898438 0.738281 -6.203125 0.875 -6.484375 C 1.019531 -6.765625 1.226562 -7.007812 1.5 -7.21875 C 1.769531 -7.4375 2.097656 -7.601562 2.484375 -7.71875 C 2.878906 -7.84375 3.316406 -7.90625 3.796875 -7.90625 C 4.515625 -7.90625 5.144531 -7.769531 5.6875 -7.5 C 6.238281 -7.226562 6.675781 -6.859375 7 -6.390625 L 6.078125 -5.625 C 5.796875 -5.957031 5.457031 -6.226562 5.0625 -6.4375 C 4.675781 -6.644531 4.253906 -6.75 3.796875 -6.75 C 3.265625 -6.75 2.828125 -6.65625 2.484375 -6.46875 C 2.148438 -6.28125 1.984375 -6.023438 1.984375 -5.703125 C 1.984375 -5.515625 2.054688 -5.351562 2.203125 -5.21875 C 2.347656 -5.09375 2.535156 -4.976562 2.765625 -4.875 C 2.992188 -4.769531 3.257812 -4.675781 3.5625 -4.59375 C 3.863281 -4.507812 4.164062 -4.421875 4.46875 -4.328125 C 4.78125 -4.234375 5.085938 -4.128906 5.390625 -4.015625 C 5.691406 -3.898438 5.957031 -3.753906 6.1875 -3.578125 C 6.425781 -3.410156 6.613281 -3.210938 6.75 -2.984375 C 6.894531 -2.753906 6.96875 -2.472656 6.96875 -2.140625 Z M 6.96875 -2.140625 "/></g></g></g><g fill="#000000" fill-opacity="1"><g transform="translate(28.430068, 142.794735)"><g><path d="M 7.5625 -3 C 7.5625 -2.570312 7.484375 -2.160156 7.328125 -1.765625 C 7.179688 -1.378906 6.957031 -1.035156 6.65625 -0.734375 C 6.363281 -0.429688 6 -0.191406 5.5625 -0.015625 C 5.132812 0.148438 4.644531 0.234375 4.09375 0.234375 C 3.539062 0.234375 3.046875 0.148438 2.609375 -0.015625 C 2.179688 -0.191406 1.816406 -0.429688 1.515625 -0.734375 C 1.222656 -1.035156 1 -1.378906 0.84375 -1.765625 C 0.695312 -2.160156 0.625 -2.570312 0.625 -3 L 0.625 -4.671875 C 0.625 -5.109375 0.695312 -5.519531 0.84375 -5.90625 C 1 -6.300781 1.222656 -6.644531 1.515625 -6.9375 C 1.816406 -7.238281 2.179688 -7.472656 2.609375 -7.640625 C 3.046875 -7.816406 3.539062 -7.90625 4.09375 -7.90625 C 4.644531 -7.90625 5.132812 -7.816406 5.5625 -7.640625 C 6 -7.472656 6.363281 -7.238281 6.65625 -6.9375 C 6.957031 -6.644531 7.179688 -6.300781 7.328125 -5.90625 C 7.484375 -5.519531 7.5625 -5.109375 7.5625 -4.671875 Z M 6.234375 -4.6875 C 6.234375 -4.96875 6.1875 -5.234375 6.09375 -5.484375 C 6 -5.734375 5.863281 -5.953125 5.6875 -6.140625 C 5.507812 -6.328125 5.285156 -6.472656 5.015625 -6.578125 C 4.753906 -6.691406 4.445312 -6.75 4.09375 -6.75 C 3.738281 -6.75 3.425781 -6.691406 3.15625 -6.578125 C 2.894531 -6.472656 2.675781 -6.328125 2.5 -6.140625 C 2.320312 -5.953125 2.1875 -5.734375 2.09375 -5.484375 C 2 -5.234375 1.953125 -4.96875 1.953125 -4.6875 L 1.953125 -2.984375 C 1.953125 -2.703125 2 -2.4375 2.09375 -2.1875 C 2.1875 -1.9375 2.320312 -1.710938 2.5 -1.515625 C 2.675781 -1.328125 2.894531 -1.175781 3.15625 -1.0625 C 3.425781 -0.957031 3.738281 -0.90625 4.09375 -0.90625 C 4.445312 -0.90625 4.753906 -0.957031 5.015625 -1.0625 C 5.285156 -1.175781 5.507812 -1.328125 5.6875 -1.515625 C 5.863281 -1.710938 6 -1.9375 6.09375 -2.1875 C 6.1875 -2.4375 6.234375 -2.703125 6.234375 -2.984375 Z M 6.234375 -4.6875 "/></g></g></g><g fill="#000000" fill-opacity="1"><g transform="translate(45.815284, 142.794735)"><g><path d="M 2.234375 -6.515625 L 2.234375 -4.3125 L 5.34375 -4.3125 L 5.34375 -3.203125 L 2.234375 -3.203125 L 2.234375 0 L 0.90625 0 L 0.90625 -7.65625 L 6.375 -7.65625 L 6.375 -6.515625 Z M 2.234375 -6.515625 "/></g></g></g><g fill="#000000" fill-opacity="1"><g transform="translate(61.76349, 142.794735)"><g><path d="M 4.328125 -6.515625 L 4.328125 0 L 3 0 L 3 -6.515625 L 0.390625 -6.515625 L 0.390625 -7.65625 L 6.9375 -7.65625 L 6.9375 -6.515625 Z M 4.328125 -6.515625 "/></g></g></g><g fill="#000000" fill-opacity="1"><g transform="translate(78.286497, 142.794735)"><g><path d="M 8.796875 0 L 7.5625 0 L 5.734375 -5.640625 L 3.84375 0 L 2.59375 0 L 0.15625 -7.65625 L 1.5625 -7.65625 L 3.25 -1.8125 L 5.171875 -7.65625 L 6.328125 -7.65625 L 8.25 -1.8125 L 9.953125 -7.65625 L 11.3125 -7.65625 Z M 8.796875 0 "/></g></g></g><g fill="#000000" fill-opacity="1"><g transform="translate(98.890639, 142.794735)"><g><path d="M 6.1875 0 L 5.4375 -1.9375 L 2.203125 -1.9375 L 1.484375 0 L 0.125 0 L 3.203125 -7.65625 L 4.453125 -7.65625 L 7.578125 0 Z M 3.796875 -6.078125 L 2.59375 -2.96875 L 5.03125 -2.96875 Z M 3.796875 -6.078125 "/></g></g></g><g fill="#000000" fill-opacity="1"><g transform="translate(115.781529, 142.794735)"><g><path d="M 6.609375 0.046875 C 6.253906 0.046875 6.003906 -0.0507812 5.859375 -0.25 C 5.710938 -0.457031 5.632812 -0.757812 5.625 -1.15625 L 5.59375 -2.15625 C 5.59375 -2.332031 5.570312 -2.484375 5.53125 -2.609375 C 5.488281 -2.742188 5.414062 -2.851562 5.3125 -2.9375 C 5.207031 -3.019531 5.066406 -3.082031 4.890625 -3.125 C 4.722656 -3.175781 4.507812 -3.203125 4.25 -3.203125 L 2.234375 -3.203125 L 2.234375 0 L 0.90625 0 L 0.90625 -7.65625 L 4.28125 -7.65625 C 4.75 -7.65625 5.15625 -7.601562 5.5 -7.5 C 5.84375 -7.40625 6.125 -7.269531 6.34375 -7.09375 C 6.5625 -6.914062 6.722656 -6.703125 6.828125 -6.453125 C 6.929688 -6.210938 6.984375 -5.945312 6.984375 -5.65625 L 6.984375 -5.40625 C 6.984375 -4.976562 6.867188 -4.613281 6.640625 -4.3125 C 6.421875 -4.007812 6.015625 -3.804688 5.421875 -3.703125 C 5.710938 -3.679688 5.957031 -3.617188 6.15625 -3.515625 C 6.351562 -3.421875 6.507812 -3.304688 6.625 -3.171875 C 6.738281 -3.035156 6.820312 -2.875 6.875 -2.6875 C 6.925781 -2.507812 6.953125 -2.328125 6.953125 -2.140625 L 6.953125 -1.234375 C 6.953125 -1.046875 6.984375 -0.890625 7.046875 -0.765625 C 7.109375 -0.648438 7.222656 -0.539062 7.390625 -0.4375 L 7.390625 0.046875 Z M 5.640625 -5.578125 C 5.640625 -5.703125 5.617188 -5.820312 5.578125 -5.9375 C 5.535156 -6.0625 5.460938 -6.164062 5.359375 -6.25 C 5.253906 -6.332031 5.117188 -6.398438 4.953125 -6.453125 C 4.796875 -6.515625 4.601562 -6.546875 4.375 -6.546875 L 2.234375 -6.546875 L 2.234375 -4.171875 L 4.375 -4.171875 C 4.800781 -4.171875 5.117188 -4.265625 5.328125 -4.453125 C 5.535156 -4.648438 5.640625 -4.910156 5.640625 -5.234375 Z M 5.640625 -5.578125 "/></g></g></g><g fill="#000000" fill-opacity="1"><g transform="translate(132.741386, 142.794735)"><g><path d="M 0.90625 0 L 0.90625 -7.65625 L 6.453125 -7.65625 L 6.453125 -6.515625 L 2.234375 -6.515625 L 2.234375 -4.515625 L 5.40625 -4.515625 L 5.40625 -3.421875 L 2.234375 -3.421875 L 2.234375 -1.15625 L 6.453125 -1.15625 L 6.453125 0 Z M 0.90625 0 "/></g></g></g></svg>